<svg width="123" height="136" viewBox="0 0 123 136" fill="none" xmlns="http://www.w3.org/2000/svg">
<g clip-path="url(#clip0)">
<path d="M111.536 4.4541H52.856C51.3934 4.4541 50.2079 5.77346 50.2079 7.40121V30.3647L53.1448 28.3353C53.8921 27.8187 54.6902 27.4702 55.5039 27.2787V10.3483H108.888V52.8525H55.5041V45.9755L50.2079 49.6352V55.7998C50.2079 57.4276 51.3934 58.7469 52.856 58.7469H111.536C112.998 58.7469 114.184 57.4276 114.184 55.7998V7.40121C114.184 5.77346 112.998 4.4541 111.536 4.4541Z" fill="#FED7B3" fill-opacity="0.9"/>
<path d="M73.0354 20.813C72.3387 19.8297 71.058 19.6615 70.1746 20.4364L61.0531 28.4404C61.924 29.074 62.6881 29.9226 63.273 30.9711C63.4389 31.2678 63.5829 31.573 63.7108 31.8824L72.6972 23.9968C73.5808 23.2217 73.7321 21.7961 73.0354 20.813Z" fill="#FED7B3" fill-opacity="0.9"/>
<path d="M29.0076 16.9654C33.2172 16.9654 36.6297 13.1676 36.6297 8.48272C36.6297 3.79784 33.2172 0 29.0076 0C24.798 0 21.3854 3.79784 21.3854 8.48272C21.3854 13.1676 24.798 16.9654 29.0076 16.9654Z" fill="#FED7B3" fill-opacity="0.9"/>
<path d="M60.149 33.131C59.0776 31.2108 56.8107 30.6206 55.0848 31.8127L47.6366 36.9592C47.6056 30.0851 47.6221 33.7332 47.6023 29.3063C47.5782 23.9925 43.6741 19.6692 38.8992 19.6692H35.281C32.1899 28.591 33.1857 25.2792 30.5619 32.8521L31.6653 27.5048C31.7417 27.1043 31.6863 26.6867 31.509 26.3281L30.0139 23.3019L31.3407 20.6167C31.5386 20.2161 31.2777 19.7252 30.867 19.7252H27.2221C26.8116 19.7252 26.5502 20.2161 26.7483 20.6167L28.0778 23.3074L26.5798 26.3393C26.4061 26.6912 26.3493 27.1003 26.4194 27.494L27.3753 32.8521C26.86 31.3649 23.2978 21.0834 22.8078 19.6692H19.1164C14.3417 19.6692 10.4374 23.9922 10.4133 29.3063L10.2775 59.375C10.2675 61.6355 11.9055 63.477 13.9366 63.4885C13.9431 63.4885 13.949 63.4885 13.9555 63.4885C15.9778 63.4885 17.6225 61.6695 17.6326 59.4162L17.7684 29.3475C17.7684 29.3427 17.7684 29.3379 17.7684 29.3334C17.7741 28.8872 18.1023 28.5296 18.5032 28.5331C18.9042 28.5363 19.2274 28.8991 19.2274 29.3454L19.2291 71.9465C22.5958 71.7871 25.7153 73.1386 28.0556 75.5119V58.8924H29.9609V77.957C31.303 80.1532 32.0885 82.8028 32.0885 85.6532C32.0885 88.2502 31.4364 90.681 30.3058 92.7536C31.4672 92.7597 32.5952 92.9313 33.6709 93.248C35.1211 91.8478 36.8656 90.8172 38.7875 90.29C38.7875 16.0899 38.7075 61.9672 38.7075 29.3509C38.7075 28.8784 39.051 28.4954 39.4756 28.4946C39.9002 28.4935 40.2451 28.8749 40.247 29.3475C40.2599 32.2181 40.3004 41.1917 40.3145 44.3157C40.3212 45.7976 41.0472 47.16 42.2127 47.8769C43.376 48.5925 44.7988 48.5553 45.932 47.7723L58.9647 38.7668C60.6899 37.5749 61.2205 35.0512 60.149 33.131Z" fill="#FED7B3" fill-opacity="0.9"/>
<path d="M102.445 94.7309C106.901 94.7309 110.513 90.7109 110.513 85.752C110.513 80.7931 106.901 76.7731 102.445 76.7731C97.9894 76.7731 94.3772 80.7931 94.3772 85.752C94.3772 90.7109 97.9894 94.7309 102.445 94.7309Z" fill="#FED7B3" fill-opacity="0.9"/>
<path d="M122.074 107.794C122.048 102.169 117.916 97.5925 112.861 97.5925C110.68 97.5925 94.5824 97.5925 92.6258 97.5925C93.4938 99.47 93.9872 101.595 93.9872 103.848C93.9872 106.24 93.4132 108.739 92.1971 110.962C96.7091 111.165 100.663 113.86 102.973 117.841H112.658V107.899C112.658 107.409 113.007 107.008 113.446 106.991C113.886 106.975 114.258 107.349 114.288 107.837C114.288 107.837 114.288 107.837 114.288 107.837L114.333 117.841H122.119L122.074 107.794Z" fill="#FED7B3" fill-opacity="0.9"/>
<path d="M69.3281 103.847C69.3281 101.555 69.8384 99.3947 70.7349 97.4937C65.4819 97.4937 59.3138 97.4937 52.7705 97.4937C53.5991 99.3368 54.0681 101.413 54.0681 103.611C54.0681 106.193 53.4165 108.638 52.2855 110.711C55.9988 110.731 59.4247 112.448 61.9 115.298C64.2997 112.689 67.5708 111.071 71.1693 111.049C69.9198 108.804 69.3281 106.283 69.3281 103.847Z" fill="#FED7B3" fill-opacity="0.9"/>
<path d="M63.2062 76.6742C58.7506 76.6742 55.1379 80.6937 55.1379 85.6531C55.1379 90.6012 58.7436 94.632 63.2062 94.632C67.626 94.632 71.2742 90.657 71.2742 85.6531C71.2742 80.6992 67.669 76.6742 63.2062 76.6742Z" fill="#FED7B3" fill-opacity="0.9"/>
<path d="M29.4091 103.611C29.4091 101.419 29.8759 99.347 30.7005 97.507C30.3528 97.4879 31.8156 97.494 9.34251 97.494C4.31406 97.494 0.155593 102.046 0.130055 107.695L0.0842285 117.841C3.64219 117.841 4.35798 117.841 7.87011 117.841L7.9157 107.739C7.91809 107.238 8.2835 106.835 8.73269 106.837C9.18188 106.838 9.54515 107.243 9.54515 107.743V117.841H20.4591C22.8113 113.656 26.8557 111.029 31.2576 110.827C30.0628 108.685 29.4091 106.214 29.4091 103.611Z" fill="#FED7B3" fill-opacity="0.9"/>
<path d="M19.7592 76.6742C15.3035 76.6742 11.6911 80.6942 11.6911 85.6531C11.6911 90.5895 15.2823 94.632 19.7592 94.632C24.1833 94.632 27.8274 90.6437 27.8274 85.6531C27.8274 80.6939 24.215 76.6742 19.7592 76.6742Z" fill="#FED7B3" fill-opacity="0.9"/>
<path d="M100.849 125.855C100.824 120.229 96.6913 115.653 91.6368 115.653C91.1007 115.653 71.834 115.653 71.2282 115.653C66.174 115.653 61.7764 120.229 61.7508 125.854L61.6852 125.617C61.6601 120.015 57.5463 115.416 52.473 115.416C46.6149 115.416 38.2013 115.416 32.0644 115.416C27.0102 115.416 22.6126 119.992 22.587 125.617L22.5412 136H30.3271L30.3727 125.661C30.3746 125.23 30.6894 124.883 31.0763 124.884C31.4632 124.885 31.7761 125.234 31.7761 125.665V136C36.3398 136 48.1214 136 52.3959 136V125.665C52.3959 125.204 52.7312 124.83 53.1456 124.829C53.5597 124.828 53.8972 125.2 53.8993 125.661L53.9449 136C55.5366 136 67.845 136 69.4909 136L69.5365 125.898C69.5365 125.898 69.5365 125.897 69.5365 125.897C69.5386 125.467 69.8535 125.119 70.2404 125.12C70.6273 125.122 70.9399 125.471 70.9399 125.902V136C75.5037 136 87.2852 136 91.5597 136V125.902C91.5597 125.441 91.8951 125.067 92.3094 125.065C92.7235 125.064 93.061 125.436 93.0631 125.897L93.1087 135.999H100.895L100.849 125.855Z" fill="#FED7B3" fill-opacity="0.9"/>
<path d="M41.9916 112.659C46.4995 112.659 50.1538 108.593 50.1538 103.576C50.1538 98.5589 46.4995 94.4919 41.9916 94.4919C37.4836 94.4919 33.8293 98.5589 33.8293 103.576C33.8293 108.593 37.4836 112.659 41.9916 112.659Z" fill="#FED7B3" fill-opacity="0.9"/>
<path d="M81.6442 112.895C86.1521 112.895 89.8065 108.828 89.8065 103.811C89.8065 98.7946 86.1521 94.7276 81.6442 94.7276C77.1363 94.7276 73.4819 98.7946 73.4819 103.811C73.4819 108.828 77.1363 112.895 81.6442 112.895Z" fill="#FED7B3" fill-opacity="0.9"/>
</g>
<defs>
<clipPath id="clip0">
<rect width="122.203" height="136" fill="white"/>
</clipPath>
</defs>
</svg>
