<svg width="35" height="58" viewBox="0 0 35 58" fill="none" xmlns="http://www.w3.org/2000/svg">
<path d="M23.1832 29.2385L1.11142 50.5056C0.503674 51.0898 0.169342 51.8709 0.169342 52.7037C0.169342 53.537 0.503674 54.3176 1.11142 54.9027L3.04547 56.7652C3.65226 57.3512 4.46339 57.6738 5.32776 57.6738C6.19214 57.6738 7.00231 57.3512 7.60958 56.7652L33.8895 31.4449C34.4992 30.858 34.833 30.0737 34.8306 29.2399C34.833 28.4025 34.4997 27.6191 33.8895 27.0317L7.63404 1.7359C7.02677 1.14988 6.2166 0.827282 5.35175 0.827282C4.48738 0.827282 3.6772 1.14988 3.06945 1.7359L1.13589 3.59843C-0.122299 4.8107 -0.122299 6.78415 1.13589 7.99595L23.1832 29.2385Z" fill="#F2ECC8" fill-opacity="0.3"/>
</svg>
