<svg width="59" height="58" viewBox="0 0 59 58" fill="none" xmlns="http://www.w3.org/2000/svg">
<g clip-path="url(#clip0)">
<path d="M23.8168 29.1794L45.8885 7.91235C46.4963 7.32817 46.8306 6.54711 46.8306 5.71428C46.8306 4.881 46.4963 4.1004 45.8885 3.51529L43.9545 1.65276C43.3477 1.06673 42.5366 0.744141 41.6722 0.744141C40.8078 0.744141 39.9977 1.06673 39.3904 1.65276L13.1104 26.973C12.5008 27.56 12.1669 28.3443 12.1693 29.178C12.1669 30.0155 12.5003 30.7989 13.1104 31.3863L39.3659 56.6821C39.9732 57.2681 40.7834 57.5907 41.6482 57.5907C42.5126 57.5907 43.3228 57.2681 43.9305 56.6821L45.8641 54.8195C47.1223 53.6073 47.1223 51.6338 45.8641 50.422L23.8168 29.1794Z" fill="#F2ECC8" fill-opacity="0.3"/>
</g>
<defs>
<clipPath id="clip0">
<rect y="0.744141" width="59" height="56.8465" fill="white"/>
</clipPath>
</defs>
</svg>
