<svg width="45" height="41" viewBox="0 0 45 41" fill="none" xmlns="http://www.w3.org/2000/svg">
<path d="M42.75 4.78345H2.25C1.0074 4.78345 0 5.70122 0 6.83345V34.1667C0 35.2989 1.00731 36.2167 2.25 36.2167H42.75C43.9925 36.2167 45 35.2989 45 34.1667V6.83345C45 5.70129 43.9927 4.78345 42.75 4.78345ZM43.5001 34.1669C43.5001 34.5442 43.1642 34.8501 42.75 34.8501H2.25C1.83577 34.8501 1.50003 34.5442 1.50003 34.1669V6.83345C1.50003 6.45603 1.83577 6.15014 2.25 6.15014H42.75C43.1642 6.15014 43.5001 6.45603 43.5001 6.83345V34.1669Z" fill="#FED7B3"/>
<path d="M41.3154 7.51924C41.1172 7.50346 40.9203 7.56007 40.768 7.67668L23.4653 20.9196C22.9073 21.347 22.0928 21.347 21.5348 20.9196L4.23248 7.6766C4.02726 7.51963 3.74565 7.47432 3.49385 7.55776C3.24204 7.6412 3.05817 7.84076 3.01159 8.08123C2.96501 8.32171 3.06275 8.56649 3.26796 8.72346L20.5704 21.9657C21.6857 22.8212 23.3147 22.8212 24.43 21.9657L41.7325 8.72354C41.8848 8.60702 41.9801 8.44013 41.9974 8.25957C42.0147 8.07899 41.9526 7.89954 41.8246 7.76076C41.6968 7.62182 41.5136 7.53501 41.3154 7.51924Z" fill="#FED7B3"/>
<path d="M14.4249 21.8716C14.1594 21.8177 13.8828 21.8989 13.7017 22.0839L3.20168 32.3339C3.01165 32.5111 2.94187 32.7685 3.01939 33.0059C3.0969 33.2436 3.30952 33.4241 3.57495 33.4781C3.84046 33.532 4.11714 33.4509 4.2982 33.2659L14.7982 23.0159C14.9882 22.8386 15.058 22.5814 14.9805 22.344C14.903 22.1063 14.6905 21.9256 14.4249 21.8716Z" fill="#FED7B3"/>
<path d="M31.2982 22.0839C31.1173 21.8989 30.8405 21.8177 30.575 21.8716C30.3095 21.9256 30.0969 22.1063 30.0193 22.344C29.9419 22.5814 30.0116 22.8386 30.2017 23.0159L40.7018 33.2659C40.9866 33.5315 41.452 33.5416 41.7499 33.2882C42.048 33.0348 42.0694 32.611 41.7982 32.3339L31.2982 22.0839Z" fill="#FED7B3"/>
</svg>
