<svg width="124" height="125" viewBox="0 0 124 125" fill="none" xmlns="http://www.w3.org/2000/svg">
<path d="M66.1763 78.4563H59.0869C56.5089 78.4563 54.4208 76.3513 54.4208 73.7526C54.4208 71.1538 56.5089 69.0489 59.0869 69.0489H71.5642C73.2657 69.0489 74.6578 67.6455 74.6578 65.9303C74.6578 64.2152 73.2657 62.8118 71.5642 62.8118H65.7122V58.4719C65.7122 56.7568 64.3201 55.3534 62.6187 55.3534C60.9172 55.3534 59.5251 56.7568 59.5251 58.4719V62.8118H59.0869C53.106 62.8118 48.2336 67.7235 48.2336 73.7526C48.2336 79.7817 53.106 84.6933 59.0869 84.6933H66.1763C68.7542 84.6933 70.8424 86.7983 70.8424 89.3971C70.8424 91.9958 68.7542 94.1008 66.1763 94.1008H53.4669C51.7654 94.1008 50.3733 95.5042 50.3733 97.2193C50.3733 98.9345 51.7654 100.338 53.4669 100.338H59.5509V104.782C59.5509 106.497 60.943 107.9 62.6445 107.9C64.3459 107.9 65.738 106.497 65.738 104.782V100.338H66.2536C66.2794 100.338 66.3052 100.338 66.3309 100.338C72.2602 100.26 77.0295 95.3742 77.0295 89.3971C77.0295 83.368 72.1571 78.4563 66.1763 78.4563Z" fill="#FED7B3" fill-opacity="0.9"/>
<path d="M109.125 71.3877C105.877 63.8514 101.391 56.5489 95.7197 49.7141C88.8623 41.3981 82.0307 35.8368 78.5505 33.264L91.6981 8.67983C92.3426 7.45842 92.1363 5.95114 91.1309 4.98961C87.728 1.63721 84.1189 0 80.0973 0C76.4108 0 73.0336 1.40333 70.0948 2.65073C67.7746 3.61227 65.5833 4.54782 63.8045 4.54782C63.2632 4.54782 62.7991 4.46985 62.3351 4.28794C56.1995 2.02703 51.4819 0.623701 46.9189 0.623701C41.1442 0.623701 36.2203 2.96258 31.3995 7.95218C30.3941 8.99168 30.2395 10.6289 31.0386 11.8503L45.2174 33.4459C41.7114 36.0707 35.0087 41.58 28.2802 49.7141C22.6345 56.5489 18.123 63.8514 14.8748 71.3877C10.8016 80.8732 8.73926 90.7744 8.73926 100.806C8.73926 114.137 19.5151 125 32.7401 125H91.2598C104.485 125 115.261 114.137 115.261 100.806C115.261 90.7744 113.198 80.8732 109.125 71.3877ZM37.6382 10.5509C40.6287 7.95218 43.4902 6.80873 46.9189 6.80873C50.5796 6.80873 54.7043 8.05613 60.1954 10.1091C61.3297 10.5249 62.5413 10.7328 63.7788 10.7328C66.795 10.7328 69.6823 9.53742 72.4407 8.36798C75.096 7.25052 77.6224 6.18503 80.0715 6.18503C81.2573 6.18503 82.933 6.39293 85.0469 7.90021L72.6727 31.0811H51.121L37.6382 10.5509ZM91.2598 118.763H32.7401C22.9181 118.763 14.9264 110.707 14.9264 100.806C14.9264 84.1476 20.9846 68.3472 32.8948 53.8462C40.4224 44.6726 48.079 38.9813 50.3991 37.3181H73.5492C75.8952 38.9553 83.5259 44.6726 91.0536 53.8462C102.99 68.3472 109.022 84.1216 109.022 100.806C109.074 110.707 101.082 118.763 91.2598 118.763Z" fill="#FED7B3" fill-opacity="0.9"/>
</svg>
