<svg width="139" height="138" viewBox="0 0 139 138" fill="none" xmlns="http://www.w3.org/2000/svg">
<path d="M119.109 12.9375H110.422V8.625C110.422 6.33751 109.507 4.14371 107.877 2.5262C106.248 0.908703 104.038 0 101.734 0C99.4303 0 97.2206 0.908703 95.5914 2.5262C93.9622 4.14371 93.0469 6.33751 93.0469 8.625V12.9375H75.6719V8.625C75.6719 6.33751 74.7566 4.14371 73.1274 2.5262C71.4981 0.908703 69.2884 0 66.9844 0C64.6803 0 62.4706 0.908703 60.8414 2.5262C59.2122 4.14371 58.2969 6.33751 58.2969 8.625V12.9375H40.9219V8.625C40.9219 6.33751 40.0066 4.14371 38.3774 2.5262C36.7481 0.908703 34.5384 0 32.2344 0C29.9303 0 27.7206 0.908703 26.0914 2.5262C24.4622 4.14371 23.5469 6.33751 23.5469 8.625V12.9375H14.8594C11.9803 12.9409 9.22023 14.0779 7.18445 16.099C5.14867 18.1202 4.00345 20.8604 4 23.7188V114.281C4.00345 117.14 5.14867 119.88 7.18445 121.901C9.22023 123.922 11.9803 125.059 14.8594 125.062H80.0156C80.5916 125.062 81.1441 124.835 81.5514 124.431C81.9587 124.027 82.1875 123.478 82.1875 122.906C82.1875 122.334 81.9587 121.786 81.5514 121.382C81.1441 120.977 80.5916 120.75 80.0156 120.75H14.8594C13.1313 120.75 11.474 120.068 10.2521 118.855C9.03022 117.642 8.34375 115.997 8.34375 114.281V43.125H125.625V73.3125C125.625 73.8844 125.854 74.4328 126.261 74.8372C126.668 75.2416 127.221 75.4688 127.797 75.4688C128.373 75.4688 128.925 75.2416 129.333 74.8372C129.74 74.4328 129.969 73.8844 129.969 73.3125V23.7188C129.965 20.8604 128.82 18.1202 126.784 16.099C124.749 14.0779 121.988 12.9409 119.109 12.9375ZM97.3906 8.625C97.3906 7.48125 97.8483 6.38435 98.6629 5.5756C99.4775 4.76685 100.582 4.3125 101.734 4.3125C102.886 4.3125 103.991 4.76685 104.806 5.5756C105.62 6.38435 106.078 7.48125 106.078 8.625V21.5625C106.078 22.7062 105.62 23.8031 104.806 24.6119C103.991 25.4206 102.886 25.875 101.734 25.875C100.582 25.875 99.4775 25.4206 98.6629 24.6119C97.8483 23.8031 97.3906 22.7062 97.3906 21.5625V8.625ZM62.6406 8.625C62.6406 7.48125 63.0983 6.38435 63.9129 5.5756C64.7275 4.76685 65.8323 4.3125 66.9844 4.3125C68.1364 4.3125 69.2413 4.76685 70.0559 5.5756C70.8705 6.38435 71.3281 7.48125 71.3281 8.625V21.5625C71.3281 22.7062 70.8705 23.8031 70.0559 24.6119C69.2413 25.4206 68.1364 25.875 66.9844 25.875C65.8323 25.875 64.7275 25.4206 63.9129 24.6119C63.0983 23.8031 62.6406 22.7062 62.6406 21.5625V8.625ZM27.8906 8.625C27.8906 7.48125 28.3483 6.38435 29.1629 5.5756C29.9775 4.76685 31.0823 4.3125 32.2344 4.3125C33.3864 4.3125 34.4913 4.76685 35.3059 5.5756C36.1205 6.38435 36.5781 7.48125 36.5781 8.625V21.5625C36.5781 22.7062 36.1205 23.8031 35.3059 24.6119C34.4913 25.4206 33.3864 25.875 32.2344 25.875C31.0823 25.875 29.9775 25.4206 29.1629 24.6119C28.3483 23.8031 27.8906 22.7062 27.8906 21.5625V8.625ZM8.34375 38.8125V23.7188C8.34375 22.0031 9.03022 20.3578 10.2521 19.1447C11.474 17.9315 13.1313 17.25 14.8594 17.25H23.5469V21.5625C23.5469 23.85 24.4622 26.0438 26.0914 27.6613C27.7206 29.2788 29.9303 30.1875 32.2344 30.1875C34.5384 30.1875 36.7481 29.2788 38.3774 27.6613C40.0066 26.0438 40.9219 23.85 40.9219 21.5625V17.25H58.2969V21.5625C58.2969 23.85 59.2122 26.0438 60.8414 27.6613C62.4706 29.2788 64.6803 30.1875 66.9844 30.1875C69.2884 30.1875 71.4981 29.2788 73.1274 27.6613C74.7566 26.0438 75.6719 23.85 75.6719 21.5625V17.25H93.0469V21.5625C93.0469 23.85 93.9622 26.0438 95.5914 27.6613C97.2206 29.2788 99.4303 30.1875 101.734 30.1875C104.038 30.1875 106.248 29.2788 107.877 27.6613C109.507 26.0438 110.422 23.85 110.422 21.5625V17.25H119.109C120.837 17.25 122.495 17.9315 123.717 19.1447C124.939 20.3578 125.625 22.0031 125.625 23.7188V38.8125H8.34375Z" fill="#FED7B3" fill-opacity="0.9"/>
<path d="M132.141 84.0938C132.717 84.0938 133.269 83.8666 133.676 83.4622C134.084 83.0579 134.313 82.5094 134.313 81.9375C134.313 81.3657 134.084 80.8172 133.676 80.4128C133.269 80.0085 132.717 79.7813 132.141 79.7813H123.453C122.877 79.7813 122.325 80.0085 121.917 80.4128C121.51 80.8172 121.281 81.3657 121.281 81.9375V90.5625C121.281 91.1344 121.51 91.6829 121.917 92.0872C122.325 92.4916 122.877 92.7188 123.453 92.7188C124.029 92.7188 124.582 92.4916 124.989 92.0872C125.396 91.6829 125.625 91.1344 125.625 90.5625V87.7443C128.888 92.3846 130.368 98.0322 129.797 103.663C129.225 109.294 126.64 114.535 122.511 118.436C118.381 122.336 112.98 124.639 107.287 124.925C101.594 125.212 95.9859 123.463 91.4801 119.997C86.9743 116.53 83.869 111.576 82.7271 106.031C81.5853 100.487 82.4826 94.7194 85.2564 89.7753C88.0302 84.8313 92.4967 81.0378 97.8461 79.0828C103.195 77.1278 109.073 77.1408 114.414 79.1193C114.954 79.3195 115.552 79.2985 116.076 79.0609C116.601 78.8233 117.008 78.3886 117.21 77.8525C117.412 77.3164 117.391 76.7227 117.151 76.2021C116.912 75.6814 116.474 75.2765 115.934 75.0763C109.54 72.699 102.496 72.699 96.1021 75.0763C89.7082 77.4536 84.3968 82.0476 81.1488 88.0099C77.9008 93.9721 76.9356 100.9 78.4315 107.514C79.9274 114.127 83.7834 119.98 89.2872 123.991C94.791 128.002 101.571 129.901 108.375 129.336C115.178 128.771 121.546 125.781 126.303 120.918C131.059 116.054 133.882 109.647 134.25 102.878C134.619 96.1098 132.508 89.4375 128.307 84.0938H132.141Z" fill="#FED7B3" fill-opacity="0.9"/>
<path d="M108.25 95.2717V84.0938C108.25 83.5219 108.021 82.9734 107.614 82.569C107.207 82.1647 106.654 81.9375 106.078 81.9375C105.502 81.9375 104.95 82.1647 104.542 82.569C104.135 82.9734 103.906 83.5219 103.906 84.0938V95.2717C102.998 95.5939 102.173 96.1123 101.491 96.7894C100.809 97.4666 100.287 98.2857 99.9621 99.1875H93.0469C92.4709 99.1875 91.9184 99.4147 91.5111 99.819C91.1038 100.223 90.875 100.772 90.875 101.344C90.875 101.916 91.1038 102.464 91.5111 102.868C91.9184 103.273 92.4709 103.5 93.0469 103.5H99.9621C100.327 104.53 100.948 105.45 101.768 106.177C102.588 106.903 103.581 107.411 104.653 107.653C105.724 107.895 106.84 107.864 107.897 107.561C108.953 107.259 109.914 106.695 110.691 105.924C111.469 105.152 112.036 104.198 112.341 103.149C112.645 102.101 112.677 100.993 112.433 99.9285C112.189 98.8645 111.678 97.8792 110.946 97.0648C110.215 96.2504 109.287 95.6335 108.25 95.2717ZM106.078 103.5C105.649 103.5 105.229 103.374 104.871 103.137C104.514 102.9 104.236 102.563 104.072 102.169C103.907 101.775 103.864 101.341 103.948 100.923C104.032 100.505 104.239 100.121 104.542 99.819C104.846 99.5175 105.233 99.3121 105.654 99.2289C106.076 99.1457 106.512 99.1884 106.909 99.3516C107.306 99.5148 107.645 99.7912 107.884 100.146C108.123 100.5 108.25 100.917 108.25 101.344C108.25 101.916 108.021 102.464 107.614 102.868C107.207 103.273 106.654 103.5 106.078 103.5Z" fill="#FED7B3" fill-opacity="0.9"/>
<path d="M58.2969 66.8438H49.6094C48.4573 66.8438 47.3525 66.3894 46.5379 65.5807C45.7233 64.7719 45.2656 63.675 45.2656 62.5312V56.0625C45.2656 54.9188 45.7233 53.8219 46.5379 53.0131C47.3525 52.2044 48.4573 51.75 49.6094 51.75H58.2969C59.4489 51.75 60.5538 52.2044 61.3684 53.0131C62.183 53.8219 62.6406 54.9188 62.6406 56.0625V62.5312C62.6406 63.675 62.183 64.7719 61.3684 65.5807C60.5538 66.3894 59.4489 66.8438 58.2969 66.8438ZM49.6094 56.0625V62.5312H58.2969V56.0625H49.6094Z" fill="#FED7B3" fill-opacity="0.9"/>
<path d="M84.3594 66.8438H75.6719C74.5198 66.8438 73.415 66.3894 72.6004 65.5807C71.7858 64.7719 71.3281 63.675 71.3281 62.5312V56.0625C71.3281 54.9188 71.7858 53.8219 72.6004 53.0131C73.415 52.2044 74.5198 51.75 75.6719 51.75H84.3594C85.5114 51.75 86.6163 52.2044 87.4309 53.0131C88.2455 53.8219 88.7031 54.9188 88.7031 56.0625V62.5312C88.7031 63.675 88.2455 64.7719 87.4309 65.5807C86.6163 66.3894 85.5114 66.8438 84.3594 66.8438ZM75.6719 56.0625V62.5312H84.3594V56.0625H75.6719Z" fill="#FED7B3" fill-opacity="0.9"/>
<path d="M32.2344 66.8438H23.5469C22.3948 66.8438 21.29 66.3894 20.4754 65.5807C19.6608 64.7719 19.2031 63.675 19.2031 62.5312V56.0625C19.2031 54.9188 19.6608 53.8219 20.4754 53.0131C21.29 52.2044 22.3948 51.75 23.5469 51.75H32.2344C33.3864 51.75 34.4913 52.2044 35.3059 53.0131C36.1205 53.8219 36.5781 54.9188 36.5781 56.0625V62.5312C36.5781 63.675 36.1205 64.7719 35.3059 65.5807C34.4913 66.3894 33.3864 66.8438 32.2344 66.8438ZM23.5469 56.0625V62.5312H32.2344V56.0625H23.5469Z" fill="#FED7B3" fill-opacity="0.9"/>
<path d="M110.422 66.8438H101.734C100.582 66.8438 99.4775 66.3894 98.6629 65.5807C97.8483 64.7719 97.3906 63.675 97.3906 62.5312V56.0625C97.3906 54.9188 97.8483 53.8219 98.6629 53.0131C99.4775 52.2044 100.582 51.75 101.734 51.75H110.422C111.574 51.75 112.679 52.2044 113.493 53.0131C114.308 53.8219 114.766 54.9188 114.766 56.0625V62.5312C114.766 63.675 114.308 64.7719 113.493 65.5807C112.679 66.3894 111.574 66.8438 110.422 66.8438ZM101.734 56.0625V62.5312H110.422V56.0625H101.734Z" fill="#FED7B3" fill-opacity="0.9"/>
<path d="M58.2969 90.5625H49.6094C48.4573 90.5625 47.3525 90.1082 46.5379 89.2994C45.7233 88.4907 45.2656 87.3937 45.2656 86.25V79.7812C45.2656 78.6375 45.7233 77.5406 46.5379 76.7318C47.3525 75.9231 48.4573 75.4688 49.6094 75.4688H58.2969C59.4489 75.4688 60.5538 75.9231 61.3684 76.7318C62.183 77.5406 62.6406 78.6375 62.6406 79.7812V86.25C62.6406 87.3937 62.183 88.4907 61.3684 89.2994C60.5538 90.1082 59.4489 90.5625 58.2969 90.5625ZM49.6094 79.7812V86.25H58.2969V79.7812H49.6094Z" fill="#FED7B3" fill-opacity="0.9"/>
<path d="M75.6719 90.5625C74.5198 90.5625 73.415 90.1082 72.6004 89.2994C71.7858 88.4907 71.3281 87.3937 71.3281 86.25V79.7812C71.3281 78.6375 71.7858 77.5406 72.6004 76.7318C73.415 75.9231 74.5198 75.4688 75.6719 75.4688H82.1875C82.7635 75.4688 83.3159 75.6959 83.7232 76.1003C84.1306 76.5047 84.3594 77.0531 84.3594 77.625C84.3594 78.1969 84.1306 78.7453 83.7232 79.1497C83.3159 79.5541 82.7635 79.7812 82.1875 79.7812H75.6719V86.25C76.2479 86.25 76.8003 86.4772 77.2076 86.8815C77.6149 87.2859 77.8438 87.8344 77.8438 88.4062C77.8438 88.9781 77.6149 89.5266 77.2076 89.931C76.8003 90.3353 76.2479 90.5625 75.6719 90.5625Z" fill="#FED7B3" fill-opacity="0.9"/>
<path d="M32.2344 90.5625H23.5469C22.3948 90.5625 21.29 90.1082 20.4754 89.2994C19.6608 88.4907 19.2031 87.3937 19.2031 86.25V79.7812C19.2031 78.6375 19.6608 77.5406 20.4754 76.7318C21.29 75.9231 22.3948 75.4688 23.5469 75.4688H32.2344C33.3864 75.4688 34.4913 75.9231 35.3059 76.7318C36.1205 77.5406 36.5781 78.6375 36.5781 79.7812V86.25C36.5781 87.3937 36.1205 88.4907 35.3059 89.2994C34.4913 90.1082 33.3864 90.5625 32.2344 90.5625ZM23.5469 79.7812V86.25H32.2344V79.7812H23.5469Z" fill="#FED7B3" fill-opacity="0.9"/>
<path d="M58.2969 114.281H49.6094C48.4573 114.281 47.3525 113.827 46.5379 113.018C45.7233 112.209 45.2656 111.112 45.2656 109.969V103.5C45.2656 102.356 45.7233 101.259 46.5379 100.451C47.3525 99.6418 48.4573 99.1875 49.6094 99.1875H58.2969C59.4489 99.1875 60.5538 99.6418 61.3684 100.451C62.183 101.259 62.6406 102.356 62.6406 103.5V109.969C62.6406 111.112 62.183 112.209 61.3684 113.018C60.5538 113.827 59.4489 114.281 58.2969 114.281ZM49.6094 103.5V109.969H58.2969V103.5H49.6094Z" fill="#FED7B3" fill-opacity="0.9"/>
<path d="M32.2344 114.281H23.5469C22.3948 114.281 21.29 113.827 20.4754 113.018C19.6608 112.209 19.2031 111.112 19.2031 109.969V103.5C19.2031 102.356 19.6608 101.259 20.4754 100.451C21.29 99.6418 22.3948 99.1875 23.5469 99.1875H32.2344C33.3864 99.1875 34.4913 99.6418 35.3059 100.451C36.1205 101.259 36.5781 102.356 36.5781 103.5V109.969C36.5781 111.112 36.1205 112.209 35.3059 113.018C34.4913 113.827 33.3864 114.281 32.2344 114.281ZM23.5469 103.5V109.969H32.2344V103.5H23.5469Z" fill="#FED7B3" fill-opacity="0.9"/>
</svg>
