<svg width="124" height="143" viewBox="0 0 124 143" fill="none" xmlns="http://www.w3.org/2000/svg">
<g clip-path="url(#clip0)">
<path d="M122.815 39.7169L83.6029 22.4769C82.6522 22.059 81.5879 22.6089 81.2255 23.7042C80.8632 24.8007 81.34 26.0281 82.2908 26.4459L116.989 41.7014L92.9688 52.2635L62.7597 36.4897C61.8326 36.0053 60.7418 36.4799 60.3227 37.548C59.9026 38.6172 60.3141 39.8751 61.2403 40.3595L88.1203 54.3953L62 65.8792L7.01114 41.7014L62 17.5237L75.5511 23.4828C76.5 23.8995 77.5653 23.3508 77.9286 22.2543C78.2909 21.1589 77.8141 19.9316 76.8633 19.5137L62.6566 13.2666C62.2337 13.0811 61.7663 13.0801 61.3434 13.2666L1.18539 39.7169C0.472076 40.0311 0 40.821 0 41.7014V51.4005C0 52.2809 0.472076 53.0708 1.18539 53.385L19.971 61.6439V69.0038C19.971 70.1766 20.795 71.128 21.812 71.128C22.83 71.128 23.654 70.1766 23.654 69.0038V63.264L61.3434 79.8353C61.5554 79.928 61.7777 79.9749 62 79.9749C62.2223 79.9749 62.4446 79.928 62.6566 79.8353L91.0663 67.3444V100.956C82.147 106.355 72.1454 109.249 62 109.249C48.1537 109.249 34.5723 103.866 23.654 94.0696V77.4995C23.654 76.3266 22.83 75.3753 21.812 75.3753C20.795 75.3753 19.971 76.3266 19.971 77.4995V95.0984C19.971 95.7432 20.2245 96.3531 20.6607 96.7557C32.3453 107.551 47.0269 113.496 62 113.496C72.0981 113.496 82.0618 110.788 91.0663 105.716V114.312C88.0985 115.247 85.9103 118.382 85.9103 122.096C85.9103 126.546 89.0493 130.167 92.9073 130.167C96.7662 130.167 99.9052 126.546 99.9052 122.096C99.9052 118.382 97.717 115.247 94.7492 114.312V103.473C97.751 101.504 100.627 99.2628 103.34 96.7557C103.776 96.3531 104.031 95.7432 104.031 95.0984V61.6428L122.815 53.3839C123.528 53.0708 124 52.2809 124 51.3994V41.7014C124 40.821 123.528 40.0311 122.815 39.7169ZM96.2222 122.096C96.2222 124.203 94.735 125.918 92.9073 125.918C91.0805 125.918 89.5933 124.203 89.5933 122.096C89.5933 119.989 91.0805 118.274 92.9073 118.274C94.735 118.274 96.2222 119.989 96.2222 122.096ZM3.68295 44.7846L60.1581 69.6159V74.7676L3.68295 49.9363V44.7846ZM63.8419 74.7676V69.6159L91.0663 57.6454V62.7982L63.8419 74.7676ZM100.347 94.0685C98.5504 95.681 96.6801 97.1713 94.7492 98.5395V65.7243L100.347 63.263V94.0685ZM94.7492 61.178V56.0263L120.317 44.7846V49.9363L94.7492 61.178Z" fill="#FED7B3" fill-opacity="0.9"/>
</g>
<defs>
<clipPath id="clip0">
<rect width="124" height="143" fill="white"/>
</clipPath>
</defs>
</svg>
