<svg width="37" height="41" viewBox="0 0 37 41" fill="none" xmlns="http://www.w3.org/2000/svg">
<g clip-path="url(#clip0)">
<path d="M29.2147 25.3981C28.4572 24.5241 27.5435 24.0568 26.5754 24.0568C25.6149 24.0568 24.6933 24.5154 23.9046 25.3894L21.4369 28.1153C21.2339 27.9942 21.0308 27.8816 20.8356 27.7692C20.5545 27.6134 20.2889 27.4661 20.0625 27.3105C17.751 25.6836 15.6503 23.5636 13.6356 20.8205C12.6594 19.4533 12.0035 18.3024 11.5271 17.1342C12.1675 16.4852 12.761 15.8102 13.3388 15.1612C13.5575 14.9189 13.7762 14.668 13.9948 14.4257C15.6347 12.6085 15.6347 10.2548 13.9948 8.43757L11.8629 6.07521C11.6208 5.80696 11.371 5.53004 11.1367 5.25313C10.6681 4.71663 10.1762 4.16283 9.66857 3.64363C8.91108 2.81289 8.00522 2.37158 7.05252 2.37158C6.09979 2.37158 5.17832 2.81289 4.39743 3.64363C4.38961 3.65227 4.38961 3.65227 4.38181 3.66093L1.72671 6.62903C0.727144 7.73663 0.157079 9.08657 0.0321333 10.6528C-0.155285 13.1796 0.516298 15.5333 1.0317 17.0736C2.29677 20.8551 4.18657 24.3597 7.00565 28.1153C10.4261 32.6409 14.5414 36.2147 19.2425 38.7329C21.0386 39.6762 23.436 40.7925 26.1146 40.9827C26.2786 40.9915 26.4503 40.9999 26.6065 40.9999C28.4103 40.9999 29.9254 40.2819 31.1123 38.854C31.1202 38.8368 31.1357 38.828 31.1436 38.8108C31.5497 38.2655 32.0183 37.7724 32.5102 37.2446C32.8459 36.8898 33.1895 36.5175 33.5255 36.1283C34.2985 35.237 34.7045 34.1986 34.7045 33.1342C34.7045 32.0611 34.2906 31.0315 33.502 30.1661L29.2147 25.3981ZM32.0104 34.5102C32.0025 34.5102 32.0025 34.5187 32.0104 34.5102C31.7058 34.8734 31.3935 35.2023 31.0578 35.5658C30.5502 36.1023 30.0346 36.6646 29.5507 37.2965C28.7618 38.2311 27.8326 38.6722 26.6143 38.6722C26.4972 38.6722 26.3721 38.6722 26.2552 38.6638C23.9358 38.4992 21.7805 37.4955 20.164 36.6389C15.744 34.2677 11.8629 30.9016 8.63777 26.6355C5.97486 23.079 4.19439 19.7907 3.0152 16.2602C2.28897 14.1055 2.02346 12.4268 2.14059 10.8432C2.21868 9.83075 2.57009 8.99137 3.21826 8.27316L5.88115 5.32236C6.2638 4.92431 6.66987 4.70799 7.06813 4.70799C7.56011 4.70799 7.95838 5.03681 8.20828 5.31373C8.21607 5.32236 8.22389 5.33103 8.23168 5.33966C8.70805 5.83292 9.16098 6.34345 9.63734 6.88862C9.87942 7.16553 10.1293 7.44245 10.3792 7.728L12.5111 10.0904C13.3388 11.0076 13.3388 11.8556 12.5111 12.7729C12.2846 13.0238 12.066 13.2748 11.8395 13.5171C11.1835 14.2613 10.5588 14.9535 9.87942 15.6285C9.8638 15.6458 9.84817 15.6544 9.84037 15.6717C9.1688 16.4159 9.29373 17.1428 9.43428 17.6361C9.4421 17.662 9.44992 17.688 9.45772 17.7139C10.0122 19.2023 10.7931 20.6042 11.9801 22.2743L11.9879 22.2829C14.1432 25.225 16.4156 27.518 18.9224 29.2748C19.2425 29.4997 19.5705 29.6815 19.8829 29.8545C20.164 30.0103 20.4295 30.1573 20.656 30.3132C20.6872 30.3304 20.7184 30.3563 20.7497 30.3738C21.0152 30.5209 21.2651 30.59 21.5228 30.59C22.1709 30.59 22.577 30.1401 22.7098 29.9931L25.3805 27.0336C25.6459 26.7394 26.0677 26.3846 26.5596 26.3846C27.0438 26.3846 27.4422 26.722 27.6841 27.0163C27.692 27.0249 27.692 27.0249 27.6997 27.0336L32.0025 31.8014C32.8069 32.6843 32.8069 33.5929 32.0104 34.5102Z" fill="#FED7B3"/>
<path d="M19.9688 9.75271C22.0148 10.1335 23.8733 11.2065 25.3571 12.8506C26.8408 14.4947 27.8013 16.5542 28.1528 18.8214C28.2387 19.3925 28.6839 19.7906 29.1913 19.7906C29.2539 19.7906 29.3085 19.7819 29.3709 19.7733C29.9488 19.6694 30.3316 19.0637 30.2379 18.4234C29.8161 15.6802 28.6447 13.1794 26.8563 11.1978C25.0682 9.21621 22.8113 7.91821 20.3358 7.45094C19.7579 7.3471 19.2191 7.7711 19.1176 8.4028C19.0161 9.0345 19.3909 9.64887 19.9688 9.75271Z" fill="#FED7B3"/>
<path d="M36.9302 18.086C36.2351 13.5689 34.3141 9.45859 31.3622 6.18764C28.4104 2.91669 24.7012 0.787957 20.6248 0.0178099C20.0547 -0.0946834 19.5159 0.337982 19.4144 0.969677C19.3207 1.61002 19.7033 2.2071 20.2812 2.3196C23.9202 3.0032 27.2392 4.9156 29.8785 7.83177C32.5181 10.7566 34.2361 14.4343 34.853 18.4667C34.9389 19.0378 35.3839 19.4359 35.8915 19.4359C35.9542 19.4359 36.0087 19.4272 36.0711 19.4186C36.6411 19.3234 37.0316 18.7176 36.9302 18.086Z" fill="#FED7B3"/>
</g>
<defs>
<clipPath id="clip0">
<rect width="37" height="41" fill="white"/>
</clipPath>
</defs>
</svg>
