<svg width="41" height="41" viewBox="0 0 41 41" fill="none" xmlns="http://www.w3.org/2000/svg">
<path d="M19.8329 21.9723C19.8816 21.9723 19.9303 21.9723 19.9888 21.9723C20.0082 21.9723 20.0277 21.9723 20.0472 21.9723C20.0764 21.9723 20.1154 21.9723 20.1446 21.9723C22.9983 21.9301 25.3067 21.0603 27.0111 19.3968C30.7609 15.7319 30.1376 9.44928 30.0694 8.84972C29.8259 4.34886 27.3715 2.19554 25.3456 1.19066C23.836 0.439109 22.0731 0.0337776 20.1056 0H20.0375C20.0277 0 20.0082 0 19.9985 0H19.9401C18.8589 0 16.7357 0.151999 14.7001 1.15688C12.6547 2.16176 10.1613 4.31509 9.91784 8.84972C9.84966 9.44928 9.22632 15.7319 12.9761 19.3968C14.6708 21.0603 16.9792 21.9301 19.8329 21.9723ZM12.5108 9.12712C12.5154 9.08187 12.5281 9.03876 12.5281 8.99328C12.8495 2.93865 17.8071 2.28843 19.9303 2.28843H19.9693C19.9888 2.28843 20.018 2.28843 20.0472 2.28843C22.6769 2.3391 27.1475 3.26798 27.4494 8.99328C27.4494 9.0389 27.4621 9.08224 27.4668 9.12761C27.5356 9.78104 27.9699 15.0386 25.0534 17.8852C23.8262 19.0843 22.1899 19.6754 20.0375 19.6923C20.018 19.6923 20.0082 19.6923 19.9888 19.6923C19.9693 19.6923 19.9595 19.6923 19.9401 19.6923C17.7973 19.6754 16.1513 19.0843 14.9338 17.8852C12.0275 15.0555 12.4438 9.77899 12.5108 9.12712Z" fill="#FED7B3"/>
<path d="M40.0039 32.3927C40.0039 32.3843 40.0039 32.3758 40.0039 32.3674C40.0039 32.2998 39.9941 32.2323 39.9941 32.1563C39.9357 30.4843 39.8091 26.5745 35.582 25.3247C35.5528 25.3163 35.5138 25.3079 35.4846 25.2994C31.092 24.3283 27.4396 22.1328 27.4006 22.1074C26.8065 21.7443 25.9883 21.871 25.5695 22.3861C25.1507 22.9012 25.2968 23.6105 25.8909 23.9736C26.0565 24.075 29.9329 26.4141 34.7834 27.495C37.0527 28.1958 37.306 30.2985 37.3741 32.2238C37.3741 32.2998 37.3741 32.3674 37.3839 32.4349C37.4051 34.094 36.3219 35.489 34.7634 36.0585C31.8418 37.1262 26.7535 38.5064 20.0081 38.5064C13.2823 38.5064 8.17752 37.1184 5.24498 36.0477C3.68656 35.4787 2.58014 34.085 2.62265 32.4265C2.62265 32.3589 2.63239 32.2914 2.63239 32.2154C2.70057 30.29 2.9538 28.1874 5.22316 27.4865C10.0736 26.4056 13.95 24.0581 14.1156 23.9652C14.7097 23.6021 14.8558 22.8928 14.437 22.3777C14.0182 21.8625 13.2 21.7359 12.6059 22.099C12.5669 22.1243 8.93402 24.3199 4.5219 25.291C4.48294 25.2994 4.45372 25.3079 4.4245 25.3163C0.197446 26.5745 0.0708294 30.4843 0.0123908 32.1478C0.0123908 32.2144 0.0123906 32.2745 0.0058414 32.3338C0.00398982 32.3506 0.00265082 32.3674 0.00265082 32.3843C-0.00708895 32.8234 -0.0168285 35.078 0.499379 36.2096C0.596777 36.4291 0.772093 36.6149 1.00585 36.7416C1.29804 36.9105 8.30093 40.778 20.0179 40.778C31.7348 40.778 38.7377 36.902 39.0299 36.7416C39.2539 36.6149 39.439 36.4291 39.5364 36.2096C40.0233 35.0865 40.0136 32.8318 40.0039 32.3927Z" fill="#FED7B3"/>
</svg>
