<svg width="50" height="34" viewBox="0 0 50 34" fill="none" xmlns="http://www.w3.org/2000/svg">
<g clip-path="url(#clip0)">
<path d="M49.735 29.1983C49.6745 29.0504 49.618 28.9278 49.5655 28.8294C48.698 27.0588 47.0402 24.8854 44.5932 22.3086L44.5415 22.2496L44.5157 22.2207L44.4895 22.191H44.4632C43.3525 20.9912 42.6493 20.1844 42.3548 19.7714C41.816 18.9845 41.6953 18.1881 41.9897 17.3811C42.1978 16.7714 42.9795 15.4838 44.3328 13.5166C45.0445 12.474 45.6083 11.6384 46.0247 11.0089C49.0275 6.48468 50.3293 3.59366 49.9298 2.33469L49.7747 2.04049C49.6705 1.86337 49.4015 1.70133 48.968 1.55356C48.5337 1.40609 47.9785 1.38171 47.3015 1.47998L39.8042 1.53868C39.6828 1.4899 39.5093 1.49445 39.2835 1.55356C39.0578 1.61267 38.9447 1.64232 38.9447 1.64232L38.8142 1.71621L38.7108 1.80498C38.624 1.86368 38.5285 1.96691 38.4243 2.11448C38.3205 2.26153 38.234 2.4341 38.1645 2.63076C37.3483 5.01075 36.4202 7.22355 35.3787 9.26905C34.7365 10.4887 34.1468 11.5458 33.6082 12.4408C33.0703 13.3355 32.619 13.9947 32.2547 14.4173C31.89 14.8402 31.561 15.1791 31.2652 15.4351C30.9702 15.6911 30.745 15.7993 30.5888 15.7597C30.4325 15.7202 30.2852 15.6809 30.1458 15.6416C29.903 15.4645 29.7077 15.2236 29.5605 14.9188C29.4125 14.6139 29.313 14.2302 29.261 13.768C29.209 13.3054 29.1785 12.9076 29.1698 12.5731C29.1615 12.239 29.1652 11.7664 29.183 11.1567C29.201 10.5467 29.209 10.134 29.209 9.9176C29.209 9.17005 29.222 8.35873 29.2477 7.48346C29.274 6.60815 29.2952 5.91467 29.313 5.40376C29.3307 4.89232 29.339 4.35126 29.339 3.78083C29.339 3.21039 29.3082 2.76303 29.2477 2.43834C29.188 2.11407 29.0963 1.7993 28.9753 1.49414C28.8535 1.18929 28.6753 0.953468 28.4415 0.78606C28.2073 0.618857 27.916 0.486169 27.5695 0.387586C26.6495 0.151662 25.478 0.0240391 24.0546 0.00419801C20.8267 -0.0350707 18.7526 0.201161 17.8328 0.712586C17.4683 0.928667 17.1385 1.22391 16.8437 1.59737C16.5312 2.03026 16.4876 2.26649 16.7132 2.30535C17.7547 2.48216 18.4919 2.90513 18.9259 3.57382L19.0823 3.92819C19.2039 4.18384 19.3253 4.63647 19.4469 5.28544C19.5683 5.93439 19.6466 6.6523 19.681 7.43869C19.7676 8.87479 19.7676 10.1041 19.681 11.1268C19.5941 12.1498 19.5121 12.9462 19.4338 13.5167C19.3554 14.0871 19.2383 14.5493 19.0823 14.9033C18.9259 15.2573 18.8218 15.4737 18.7697 15.5522C18.7176 15.6308 18.6742 15.6803 18.6398 15.6997C18.4142 15.7977 18.1796 15.8476 17.9367 15.8476C17.6936 15.8476 17.3987 15.7097 17.0516 15.4342C16.7047 15.1587 16.3446 14.7803 15.9714 14.2983C15.5982 13.8163 15.1773 13.1426 14.7085 12.2772C14.2401 11.4119 13.7542 10.3891 13.2508 9.20901L12.8344 8.35315C12.5741 7.80255 12.2185 7.00085 11.7672 5.94875C11.3157 4.89625 10.9166 3.87815 10.5696 2.89467C10.431 2.48164 10.2226 2.16718 9.94497 1.95079L9.81467 1.86202C9.72805 1.78349 9.589 1.70009 9.39825 1.61122C9.20722 1.52245 9.0079 1.4588 8.79945 1.41963L1.66643 1.47833C0.937527 1.47833 0.44296 1.66547 0.182545 2.03925L0.0783248 2.21606C0.0262603 2.31454 0 2.47183 0 2.68832C0 2.9047 0.0520645 3.1703 0.156285 3.48474C1.19757 6.25838 2.32996 8.9333 3.55343 11.5099C4.7769 14.0866 5.84008 16.1622 6.7423 17.7348C7.64472 19.3085 8.56458 20.7938 9.50183 22.1899C10.4391 23.5865 11.0595 24.4816 11.363 24.8747C11.6669 25.2687 11.9056 25.5632 12.0791 25.7598L12.7301 26.4678C13.1466 26.94 13.7582 27.5054 14.5653 28.1642C15.3725 28.8235 16.2662 29.4723 17.2468 30.1121C18.2275 30.751 19.3685 31.2721 20.6702 31.6752C21.9719 32.0787 23.2387 32.2408 24.4711 32.1626H27.465C28.072 32.1031 28.532 31.8869 28.8447 31.5135L28.9482 31.3656C29.018 31.248 29.0833 31.0658 29.1432 30.8201C29.2043 30.5745 29.2345 30.3036 29.2345 30.009C29.2167 29.1632 29.2735 28.401 29.4035 27.7227C29.5333 27.0443 29.681 26.5329 29.8465 26.1885C30.0117 25.8444 30.1982 25.554 30.406 25.3186C30.614 25.0827 30.7622 24.9398 30.8492 24.8905C30.9357 24.841 31.0047 24.8075 31.0567 24.7873C31.4732 24.6301 31.9635 24.7824 32.528 25.245C33.0923 25.7073 33.6215 26.278 34.1162 26.9563C34.611 27.6352 35.2052 28.3971 35.8993 29.2425C36.594 30.0886 37.2013 30.7173 37.7215 31.131L38.242 31.4851C38.5897 31.7211 39.041 31.9376 39.5965 32.1342C40.151 32.3309 40.6367 32.3802 41.0537 32.2819L47.718 32.164C48.3773 32.164 48.89 32.0402 49.2537 31.7948C49.6185 31.5489 49.835 31.278 49.9048 30.9836C49.9745 30.6887 49.9782 30.3541 49.918 29.9798C49.8562 29.6066 49.7955 29.3457 49.735 29.1983Z" fill="#FED7B3" fill-opacity="0.8"/>
</g>
<defs>
<clipPath id="clip0">
<rect width="50" height="34" fill="white"/>
</clipPath>
</defs>
</svg>
