<svg width="39" height="46" viewBox="0 0 39 46" fill="none" xmlns="http://www.w3.org/2000/svg">
<g clip-path="url(#clip0)">
<path d="M16.0419 15.0575C15.2397 14.4882 14.2115 15.1763 14.2115 16.2918V29.7085C14.2115 30.8297 15.2413 31.5082 16.0419 30.9447L25.5146 24.246C26.3023 23.6882 26.3007 22.3351 25.5162 21.7754L16.0419 15.0575ZM16.6326 27.1804V18.8237L22.5319 23.0078L16.6326 27.1804Z" fill="#FED7B3" fill-opacity="0.9"/>
<path d="M32.1258 6.26944C24.6157 4.94502 14.1244 4.94502 6.61109 6.26944C3.60576 6.79844 1.23797 9.6006 0.721474 13.2384C-0.240491 19.9909 -0.240491 26.0111 0.721474 32.7616C1.23797 36.4014 3.60576 39.2016 6.61109 39.7306C10.375 40.3938 14.8814 40.7253 19.3862 40.7253C23.8829 40.7253 28.378 40.3957 32.1274 39.7325C35.1295 39.2035 37.4957 36.4033 38.0154 32.7635C38.9773 26.0111 38.9773 19.9889 38.0154 13.2365C37.4989 9.6006 35.1311 6.79844 32.1258 6.26944ZM35.6282 32.2844C35.2844 34.6917 33.735 36.5432 31.7707 36.8882C24.4785 38.1743 14.2778 38.1743 6.96618 36.8863C5.00028 36.5394 3.44919 34.6898 3.10702 32.2824C2.18056 25.7773 2.18056 20.2247 3.10702 13.7157C3.45081 11.3084 5.00028 9.46069 6.96779 9.11185C10.6187 8.46977 14.9944 8.14777 19.3668 8.14777C23.7425 8.14777 28.1181 8.46977 31.7691 9.11185C33.735 9.45877 35.286 11.3084 35.6282 13.7157C36.5547 20.2247 36.5547 25.7773 35.6282 32.2844Z" fill="#FED7B3" fill-opacity="0.9"/>
</g>
<defs>
<clipPath id="clip0">
<rect width="38.7368" height="46" fill="white"/>
</clipPath>
</defs>
</svg>
